# xmcd
#
# Track frame offsets:
# 150
# 12187
# 23862
# 41969
# 53437
# 64150
# 79646
# 88226
# 99517
# 112370
# 122512
# 133940
# 146063
# 157405
# 174521
# 186087
# 197039
# 207231
# 219094
# 233735
# 244114
# 257090
#
# Disc length: 3567 seconds
#
#
# Revision: 0
# Processed by: cddbd v1.5.1PL0 Copyright (c) Steve Scherf et al.
# Submitted via: FreeRIP 2.92 
#
DISCID=400ded16
DTITLE=Country Band Mahagon - Stodola No2-22 country legend ze stodoly
DYEAR=1900
DGENRE=Country
TTITLE0=Rovnou tady rovnou
TTITLE1=Ved me dal,cesto ma
TTITLE2=Divka s vlasem medovym
TTITLE3=Do rana toulam
TTITLE4=Nelly Bly
TTITLE5=Tisic mil
TTITLE6=Kamarad
TTITLE7=Jizni vlak
TTITLE8=Slida
TTITLE9=Tak ja jdu dal
TTITLE10=Rodne udoli
TTITLE11=Ruty suty
TTITLE12=Vuz do Tennessee
TTITLE13=Co se bude dit
TTITLE14=Ven se divej a nespi
TTITLE15=Sest dni na silnici
TTITLE16=Zuzana
TTITLE17=Sundej z hodin zavazi
TTITLE18=Necekej uz dal
TTITLE19=Buraky
TTITLE20=Lod John Bee
TTITLE21=Za chvili uz budu v dali
EXTD=
EXTT0=
EXTT1=
EXTT2=
EXTT3=
EXTT4=
EXTT5=
EXTT6=
EXTT7=
EXTT8=
EXTT9=
EXTT10=
EXTT11=
EXTT12=
EXTT13=
EXTT14=
EXTT15=
EXTT16=
EXTT17=
EXTT18=
EXTT19=
EXTT20=
EXTT21=
PLAYORDER=
